<?xml version="1.0" standalone="no"?>
<!DOCTYPE svg PUBLIC "-//W3C//DTD SVG 20010904//EN"
 "http://www.w3.org/TR/2001/REC-SVG-20010904/DTD/svg10.dtd">
<svg version="1.0" xmlns="http://www.w3.org/2000/svg"
 width="400.000000pt" height="400.000000pt" viewBox="0 0 400.000000 400.000000"
 preserveAspectRatio="xMidYMid meet">

<g transform="translate(0.000000,400.000000) scale(0.100000,-0.100000)"
fill="#000000" stroke="none">
<path d="M2685 3700 l-140 -49 -211 0 -210 -1 -33 -135 c-17 -75 -58 -265 -91
-423 -32 -158 -70 -339 -85 -402 -14 -63 -35 -160 -46 -215 -18 -89 -36 -169
-84 -371 -8 -33 -15 -68 -15 -78 0 -16 31 -17 478 -14 534 3 523 2 580 76 26
33 27 43 32 171 l5 136 89 31 c101 35 126 58 108 99 -7 16 -20 25 -34 25 -40
0 -5 16 152 71 187 64 220 88 227 165 9 88 -37 143 -126 154 -45 5 -44 6 121
64 92 32 172 64 178 72 7 7 10 21 8 30 -8 42 -29 39 -257 -39 -192 -67 -220
-74 -206 -55 8 12 15 32 15 43 0 22 -33 59 -59 67 -8 2 91 40 219 84 129 43
246 89 260 101 21 18 25 30 25 73 0 44 -4 55 -28 76 -41 35 -76 31 -254 -31
-87 -30 -162 -55 -167 -55 -5 0 -2 8 7 18 21 23 22 81 2 109 -26 37 -62 37
-173 -2 -55 -19 -103 -35 -105 -35 -3 0 -7 17 -10 38 -3 20 -8 44 -12 53 -4
12 3 20 25 29 39 16 63 61 55 101 -8 34 -48 69 -79 68 -11 0 -84 -22 -161 -49z
m-202 -626 c36 -27 57 -76 57 -133 0 -41 3 -49 25 -59 25 -11 25 -13 25 -132
l0 -120 -37 -17 c-51 -23 -249 -24 -308 -1 l-40 15 -3 121 c-2 113 -1 122 18
132 16 8 20 21 20 56 0 50 20 102 50 129 49 44 140 49 193 9z"/>
<path d="M2330 3023 c-22 -21 -30 -38 -32 -68 l-3 -40 98 -3 97 -3 0 41 c0 88
-95 131 -160 73z"/>
<path d="M3268 3675 c-14 -32 5 -57 41 -53 20 2 27 9 29 32 6 48 -50 65 -70
21z"/>
<path d="M3735 3566 c-45 -20 -67 -50 -72 -98 -8 -84 61 -146 142 -128 56 13
87 48 93 108 4 46 2 53 -29 85 -39 42 -88 54 -134 33z"/>
<path d="M1036 3127 c-92 -32 -106 -41 -106 -71 0 -27 18 -46 44 -46 37 0 2
-17 -139 -65 -77 -26 -155 -54 -172 -62 -45 -21 -75 -72 -75 -129 0 -76 47
-124 131 -134 l46 -5 -95 -34 c-52 -19 -132 -48 -178 -64 -82 -29 -83 -30 -80
-61 2 -20 9 -32 20 -34 14 -3 327 99 441 143 16 7 16 6 1 -22 -24 -40 -12 -81
27 -97 30 -12 27 -14 -138 -71 -344 -118 -353 -123 -353 -198 0 -49 43 -97 89
-97 16 0 107 27 200 59 94 33 171 57 171 55 0 -3 -10 -18 -21 -34 -16 -21 -20
-36 -14 -57 18 -72 51 -80 173 -42 53 17 100 34 105 38 4 4 6 243 5 532 l-3
524 -79 -28z"/>
<path d="M152 2201 c-54 -34 -69 -109 -33 -167 38 -62 127 -69 183 -14 23 24
28 37 28 79 0 41 -5 56 -28 82 -37 41 -102 50 -150 20z"/>
<path d="M1095 1955 c-35 -34 -33 -78 4 -116 16 -16 38 -29 48 -29 10 0 81 21
158 47 l139 48 -104 5 c-107 5 -131 12 -164 49 -25 28 -51 27 -81 -4z"/>
<path d="M666 1925 c-19 -20 -20 -26 -3 -49 26 -36 84 4 61 42 -15 23 -38 26
-58 7z"/>
<path d="M190 1210 l0 -280 30 0 30 0 0 115 0 114 103 3 102 3 0 35 0 35 -102
3 -103 3 0 89 0 90 116 0 115 0 -3 33 -3 32 -142 3 -143 3 0 -281z"/>
<path d="M608 1484 c-5 -4 -8 -130 -8 -281 l0 -273 35 0 35 0 0 100 0 100 48
0 c37 0 49 -4 57 -19 6 -11 30 -56 55 -100 44 -79 46 -81 83 -81 l38 0 -33 62
c-18 35 -36 65 -39 68 -4 3 -15 23 -26 46 l-20 41 33 37 c38 43 48 83 42 162
-5 59 -28 93 -83 121 -32 17 -205 31 -217 17z m177 -70 c11 -3 31 -20 44 -39
32 -48 26 -100 -16 -142 -29 -29 -39 -33 -88 -33 l-55 0 0 110 0 110 48 0 c26
0 56 -3 67 -6z"/>
<path d="M1070 1211 l0 -281 25 0 c25 0 25 0 25 99 l0 98 73 6 c84 7 121 22
139 57 7 14 18 32 26 41 19 24 18 145 -2 165 -9 8 -16 22 -16 30 0 8 -8 17
-17 21 -10 3 -26 13 -35 21 -12 10 -49 17 -118 20 l-100 5 0 -282z m190 196
c15 -7 31 -29 39 -54 13 -36 13 -45 -2 -84 -20 -52 -50 -69 -118 -69 -33 0
-49 5 -53 16 -8 21 -8 189 1 197 11 12 107 7 133 -6z"/>
<path d="M1710 1210 l0 -280 89 0 c135 0 154 7 209 74 35 43 1 176 -49 191
-26 8 -24 27 6 59 21 22 25 37 25 86 0 68 -13 110 -35 110 -8 0 -15 4 -15 9 0
14 -92 31 -165 31 l-65 0 0 -280z m195 184 c38 -35 38 -95 0 -130 -23 -21 -35
-24 -79 -22 l-51 3 -3 88 -3 87 54 0 c44 0 59 -5 82 -26z m24 -248 c25 -22 32
-54 23 -91 -11 -40 -61 -65 -129 -65 l-53 0 0 91 0 92 70 -5 c47 -4 77 -11 89
-22z"/>
<path d="M2618 1253 c-14 -2 -38 -15 -53 -29 -32 -30 -35 -30 -35 1 0 21 -5
25 -30 25 l-30 0 0 -241 0 -240 33 3 32 3 3 92 3 91 32 -16 c42 -22 124 -21
159 2 67 44 88 158 44 236 -13 22 -32 47 -42 54 -22 16 -78 25 -116 19z m82
-83 c26 -26 30 -38 30 -83 0 -59 -3 -65 -47 -95 -37 -26 -59 -27 -100 -7 -65
32 -64 172 0 203 43 21 86 14 117 -18z"/>
<path d="M2980 1254 c-41 -15 -62 -31 -86 -67 -37 -56 -38 -145 -3 -199 44
-68 142 -85 204 -36 l25 19 0 -20 c0 -17 6 -21 35 -21 l35 0 0 160 0 160 -29
0 c-23 0 -32 -6 -39 -27 -6 -16 -11 -23 -11 -17 -2 28 -94 61 -131 48z m114
-75 c23 -18 26 -27 26 -87 0 -74 -3 -80 -42 -105 -35 -22 -53 -21 -93 3 -93
58 -61 210 44 210 24 0 48 -8 65 -21z"/>
<path d="M2085 1241 c-3 -6 -1 -11 4 -11 6 0 11 -5 11 -10 0 -6 13 -39 29 -73
16 -34 32 -73 36 -87 4 -14 16 -41 26 -60 25 -47 24 -85 -6 -145 -32 -66 -32
-85 1 -85 17 0 28 6 31 20 3 11 9 20 14 20 5 0 9 8 9 18 0 20 20 77 38 109 7
12 12 28 12 37 0 8 7 21 15 30 8 8 17 25 19 38 3 13 5 23 6 23 1 0 3 11 6 24
2 14 8 29 13 35 9 12 41 104 41 118 0 4 -11 8 -24 8 -19 0 -26 -8 -36 -45 -7
-25 -16 -45 -20 -45 -4 0 -11 -12 -14 -26 -18 -69 -56 -130 -56 -89 0 8 -4 15
-8 15 -5 0 -16 26 -26 58 -10 31 -21 59 -25 62 -3 3 -11 19 -16 35 -8 24 -17
31 -42 33 -17 2 -34 -2 -38 -7z"/>
<path d="M3315 1230 c-9 -10 -20 -38 -22 -62 -4 -36 -1 -47 20 -70 14 -15 41
-30 61 -34 41 -7 61 -34 52 -70 -5 -20 -13 -24 -43 -24 -21 0 -45 8 -56 17
-18 17 -19 17 -32 -1 -20 -26 -9 -42 37 -55 87 -26 162 16 162 91 1 29 -6 43
-33 67 -18 16 -44 32 -58 36 -56 14 -70 57 -24 73 16 6 31 9 33 8 1 -2 15 -6
29 -10 20 -4 29 -1 33 10 12 30 -13 44 -79 44 -49 0 -66 -4 -80 -20z"/>
<path d="M3609 1231 c-20 -16 -24 -29 -24 -71 0 -58 20 -82 88 -100 42 -12 52
-28 43 -65 -5 -21 -12 -25 -46 -25 -22 0 -40 4 -40 9 0 11 -30 19 -47 14 -18
-6 -16 -27 5 -45 26 -23 86 -31 132 -17 33 10 42 18 50 48 5 20 10 46 10 59 0
27 -51 78 -89 87 -35 9 -51 24 -51 46 0 26 42 42 77 28 31 -12 53 -6 53 15 0
39 -119 51 -161 17z"/>
</g>
</svg>
